<svg width="14" height="15" viewBox="0 0 14 15" fill="none" xmlns="http://www.w3.org/2000/svg">
<mask id="path-1-inside-1" fill="white">
<path d="M5.45752 9.97778L3.3362 7.85646L10.0537 1.13895C10.249 0.943686 10.5656 0.943686 10.7608 1.13895L12.175 2.55316C12.3703 2.74842 12.3703 3.06501 12.175 3.26027L5.45752 9.97778Z"/>
</mask>
<path d="M5.45752 9.97778L3.3362 7.85646L10.0537 1.13895C10.249 0.943686 10.5656 0.943686 10.7608 1.13895L12.175 2.55316C12.3703 2.74842 12.3703 3.06501 12.175 3.26027L5.45752 9.97778Z" stroke="white" stroke-width="2.4" mask="url(#path-1-inside-1)"/>
<path d="M2.72684 10.87C2.56185 10.8936 2.42043 10.7521 2.444 10.5871L2.75041 8.44225L4.87173 10.5636L2.72684 10.87Z" fill="white"/>
<line x1="0.6" y1="-0.6" x2="11.4" y2="-0.6" transform="matrix(0.999988 -0.00488377 -0.00488343 0.999988 1.33618 13.3376)" stroke="white" stroke-width="1.2" stroke-linecap="round"/>
<line x1="9.88178" y1="2.55352" x2="11.296" y2="3.96773" stroke="white" stroke-width="1.2"/>
</svg>
